<svg width="500" height="106" viewBox="0 0 500 106" fill="none" xmlns="http://www.w3.org/2000/svg">
<path fill-rule="evenodd" clip-rule="evenodd" d="M459.535 5.91944C458.999 6.02673 458.46 7.21038 458.46 7.85527C458.353 12.1607 458.245 23.5681 458.245 31.3161C458.245 31.5319 458.567 31.9622 458.89 31.9622C460.504 32.0695 464.378 32.1767 467.715 32.1767C472.342 32.1767 475.032 31.5319 476.54 30.887C480.413 28.9488 482.243 24.7518 482.243 20.1233C482.243 9.68614 474.925 5.7037 464.055 5.7037C463.302 5.59641 461.152 5.59641 459.535 5.91944ZM487.302 54.0236C487.302 43.3696 479.445 37.4501 465.24 37.4501C464.594 37.4501 460.074 37.3428 458.998 37.5574C458.675 37.6659 458.245 37.8816 458.245 38.2046C458.245 45.8442 458.137 58.0061 458.46 62.7407C458.675 64.785 460.183 67.6911 462.012 68.5517C463.948 69.628 468.361 69.8426 471.374 69.8426C479.876 69.8426 487.302 65.108 487.302 54.0236ZM437.583 0.00116552C438.659 0.00116552 441.887 0.323027 450.173 0.323027C458.03 0.323027 464.271 0.108451 471.912 0.108451C481.274 0.108451 494.188 3.44367 494.188 17.4341C494.188 24.3215 489.345 29.8106 482.996 32.5009C482.674 32.6082 482.674 32.8228 482.996 32.9301C492.035 35.1913 500 40.7865 500 51.3321C500 61.6643 493.543 68.2287 484.18 72.3184C478.476 74.793 471.374 75.6536 464.164 75.6536C458.675 75.6536 443.932 75.0087 435.754 75.2245C434.893 74.9003 436.507 71.0263 437.259 70.3814C439.197 70.2729 440.703 70.1656 442.748 69.5196C445.654 68.7674 445.976 67.9056 446.407 63.494C446.622 59.7273 446.622 46.3818 446.622 36.9125C446.622 23.8912 446.731 15.0668 446.622 10.7625C446.515 7.42728 445.331 6.34975 442.964 5.7037C441.133 5.38184 438.121 4.95036 435.645 4.6285C435.106 4.08973 436.936 0.430313 437.583 0.00116552ZM375.487 66.9377C378.072 68.9808 383.129 69.8415 387.649 69.8415C393.46 69.8415 399.271 68.7674 404.868 63.7074C410.572 58.5437 414.553 50.58 414.553 37.8816C414.553 25.7197 409.925 15.819 400.455 10.0092C395.074 6.67161 388.187 5.27455 380.223 5.27455C377.856 5.27455 375.596 5.38184 374.198 6.02673C373.874 6.24247 373.121 7.21038 373.121 7.74798C372.906 9.90071 372.906 26.473 372.906 36.1592C372.906 46.1672 372.906 60.1576 373.121 61.7716C373.121 63.3868 373.874 65.8613 375.489 66.9377H375.487ZM351.059 0C353.104 0 360.959 0.323027 364.726 0.323027C371.507 0.323027 376.349 0.00116552 389.155 0.00116552C399.916 0.00116552 408.956 2.90607 415.413 8.39403C423.269 15.1741 427.36 24.5372 427.36 35.9435C427.36 52.1939 419.934 61.557 412.507 66.9377C405.084 72.4257 395.397 75.6536 381.623 75.6536C374.305 75.6536 361.714 75.439 351.274 75.3306H351.167C350.63 74.3627 352.028 70.596 352.888 70.4887C355.687 70.1657 356.441 70.0572 357.84 69.5208C360.099 68.659 360.53 67.4753 360.853 63.494C361.175 56.0679 361.068 47.1363 361.068 37.0198C361.068 29.8106 361.175 15.7117 360.959 11.1917C360.638 7.42612 359.024 6.45704 355.794 5.81098C354.181 5.48912 352.028 5.05765 349.016 4.73579C348.584 3.98128 350.521 0.644888 351.059 0Z" fill="#718EB1"/>
<path fill-rule="evenodd" clip-rule="evenodd" d="M220.839 71.1334C218.148 70.8103 216.211 70.3812 213.844 69.3048C213.521 69.0891 212.982 68.0139 212.982 67.5824C212.768 63.8157 212.768 53.0543 212.768 45.8451C212.768 40.0329 211.8 34.9752 209.324 31.4243C206.418 27.3334 202.222 24.9672 196.84 24.9672C192.105 24.9672 185.756 28.1952 180.482 32.7152C180.375 32.8225 179.514 33.577 179.622 32.3922C179.622 31.2085 179.837 28.8412 179.945 27.2261C180.053 25.7194 179.191 24.9672 179.191 24.9672C175.748 26.6885 166.063 28.9485 162.511 29.2704C159.929 29.8103 159.283 32.2849 161.974 33.1455H162.081C164.985 34.0061 166.923 34.9752 168.429 35.9443C169.505 36.8049 169.398 37.9886 169.398 38.9577C169.505 47.0276 169.505 59.4041 169.183 66.1841C169.076 68.8745 168.323 69.8424 166.385 70.2727L166.6 70.1654C165.094 70.4885 163.91 70.8103 162.08 71.0261C161.434 71.6721 161.434 75.1158 162.08 75.8691C163.264 75.8691 169.505 75.5461 174.672 75.5461C181.774 75.5461 185.434 75.8691 187.262 75.8691C188.016 75.0085 188.231 71.7794 187.801 71.0261C185.756 70.9188 184.249 70.7042 182.851 70.2727C180.914 69.8412 180.375 68.8745 180.267 66.6145C180.053 60.9096 180.053 48.8573 180.053 40.6789C180.053 38.4189 180.698 37.3426 181.343 36.6965C183.819 34.5449 187.801 33.0382 191.352 33.0382C194.796 33.0382 197.055 34.1146 198.777 35.514C201.144 37.4498 201.898 40.2486 202.221 42.2929C202.758 46.9203 202.544 56.0677 202.544 64.0314C202.544 68.3357 202.221 69.4121 200.608 69.9497C199.853 70.2727 197.916 70.7042 195.656 70.9176C194.903 71.6721 195.119 75.0085 195.656 75.7619C198.777 75.7619 202.436 75.4388 207.817 75.4388C214.489 75.4388 218.794 75.7619 220.517 75.7619C221.053 75.1158 221.269 71.9951 220.839 71.1334ZM250.648 30.026C244.945 30.026 241.393 34.4376 241.393 41.3238C241.393 48.3197 244.514 56.3907 253.338 56.3907C254.845 56.3907 257.644 55.7446 258.934 54.238C260.979 52.3021 262.378 48.4269 262.378 44.3372C262.378 35.4055 257.966 30.026 250.648 30.026ZM249.895 77.5904C247.743 77.5904 246.235 78.2365 245.267 78.7752C240.747 81.679 238.703 84.4778 238.703 87.8153C238.703 90.9348 239.887 93.4094 242.47 95.5622C245.59 98.2525 249.895 99.5446 255.383 99.5446C266.36 99.5446 271.203 93.6252 271.203 87.8153C271.203 83.7244 269.157 81.0341 264.961 79.5286C261.948 78.2365 256.46 77.5904 249.895 77.5904ZM250.648 105.571C244.084 105.571 239.348 104.172 235.259 101.051C231.277 98.0379 229.556 93.5179 229.556 90.3972C229.556 89.5366 229.771 87.1681 231.708 85.0165C232.891 83.7244 235.475 81.2498 241.609 77.0528C241.824 76.9455 241.931 76.8382 241.931 76.6213C241.931 76.4068 241.715 76.191 241.501 76.0849C236.443 74.1479 234.936 71.0261 234.505 69.3048V69.0891C234.399 68.443 234.183 67.7981 235.152 67.1521C235.905 66.6145 236.982 65.9684 238.164 65.2162C239.994 64.1387 241.931 62.955 243.115 61.986C243.33 61.7714 243.33 61.5568 243.33 61.3411C243.33 61.1253 243.115 60.9096 242.899 60.8035C235.368 58.3277 231.601 52.7313 231.601 44.3372C231.601 38.8492 234.076 33.8989 238.487 30.7782C241.501 28.4109 249.034 25.5048 253.984 25.5048H254.307C259.365 25.6121 262.163 26.6885 266.144 28.0879C268.297 28.8412 270.342 29.1631 273.141 29.1631C277.337 29.1631 279.167 27.8721 280.672 26.3666C280.78 26.5812 280.996 27.12 281.103 28.5182C281.211 29.9176 280.78 31.9619 279.704 33.4685C278.843 34.6522 276.906 35.514 274.969 35.514H274.431C272.494 35.2983 271.632 35.0825 271.632 35.0825L271.203 35.2983C271.095 35.514 271.203 35.7286 271.31 36.0516L271.419 36.2673C271.633 37.2353 272.063 40.1402 272.063 40.8947C272.063 49.7191 268.512 53.5919 264.746 56.498C261.086 59.1883 256.89 60.9096 252.155 61.3411C252.047 61.3411 251.618 61.3411 250.648 61.4484C250.11 61.4484 249.357 61.5568 249.249 61.5568H249.141C248.281 61.7714 246.129 62.8477 246.129 64.6763C246.129 66.2903 247.097 68.2284 251.724 68.5515C252.692 68.6587 253.66 68.6588 254.738 68.7672C260.872 69.1964 268.512 69.7351 272.063 70.9188C277.014 72.7473 280.134 77.1601 280.134 82.4335C280.134 90.3984 274.432 97.8234 264.961 102.45C260.334 104.495 255.706 105.571 250.648 105.571ZM311.988 30.5636C309.729 30.5636 307.684 31.1001 306.177 32.1764C301.981 34.7595 299.829 39.9256 299.829 47.4579C299.829 61.5568 306.93 71.4575 317.047 71.4575C320.06 71.4575 322.428 70.5957 324.472 68.8745C327.593 66.2903 329.208 61.1253 329.208 53.9149C329.208 39.9256 322.212 30.5625 311.989 30.5625L311.988 30.5636ZM313.926 76.6225C295.632 76.6225 289.067 63.1708 289.067 50.5797C289.067 41.7553 292.618 34.9752 299.72 30.1321C304.779 27.0115 310.806 25.2902 316.186 25.2902C330.176 25.2902 339.969 35.2983 339.969 49.7191C339.969 59.5114 336.095 67.2594 328.669 71.9951C325.118 74.3625 318.984 76.6225 313.925 76.6225H313.926ZM122.156 30.5625C119.895 30.5625 117.851 31.1001 116.343 32.1764C112.148 34.7595 109.995 39.9256 109.995 47.4579C109.995 61.5568 117.097 71.4575 127.213 71.4575C130.227 71.4575 132.594 70.5957 134.639 68.8745C137.759 66.2903 139.374 61.1253 139.374 53.9149C139.374 39.9256 132.487 30.5625 122.156 30.5625ZM124.093 76.6225C105.798 76.6225 99.2334 63.1708 99.2334 50.5797C99.2334 41.7553 102.784 34.9752 109.886 30.1321C114.945 27.0115 120.972 25.2902 126.353 25.2902C140.343 25.2902 150.135 35.2983 150.135 49.7191C150.135 59.5114 146.261 67.2594 138.835 71.9951C135.391 74.3625 129.257 76.6225 124.093 76.6225ZM1.08799 75.5461C0.872253 75.2243 0.656513 74.2552 0.764966 73.0715C0.764966 72.2097 0.980706 71.6721 1.08799 71.4575C3.34802 71.1334 4.53167 70.8103 5.82261 70.4885C7.97535 69.9497 8.83598 68.7672 8.94327 66.0769C9.26746 59.6198 9.26746 47.3506 9.159 38.8492V38.6335C9.159 37.6656 9.159 36.4808 7.97535 35.6201C6.25293 34.5449 4.20864 33.577 1.5183 32.8213C0.550387 32.5006 -0.0956668 31.9619 0.0116202 31.317C0.0116202 30.6709 0.657681 29.9176 2.05708 29.7018C5.60804 29.3788 14.8615 27.12 18.521 25.5048C18.7367 25.7194 19.0597 26.3666 19.0597 27.2272L18.9524 28.4097C18.844 29.5946 18.7367 30.9939 18.7367 32.3922C18.7367 32.8225 19.1682 33.1455 19.5973 33.1455C19.8131 33.1455 20.0288 33.0382 20.2434 32.9298C27.1307 27.5491 33.372 25.6121 36.6 25.6121C41.8745 25.6121 45.9643 28.0879 49.0849 33.2528C49.2995 33.577 49.5152 33.6843 49.8383 33.6843C50.0528 33.6843 50.3747 33.577 50.4831 33.3613C56.8329 28.5182 63.1827 25.6121 67.3785 25.6121C77.3865 25.6121 83.306 33.0382 83.306 45.6293C83.306 49.1803 83.306 53.8076 83.1987 58.0058C83.1987 61.7714 83.0914 65.2151 83.0914 67.6908C83.0914 68.2273 83.8436 69.9497 85.0272 70.2727C86.5339 71.0261 88.5793 71.3491 91.2697 71.7794H91.377C91.5927 72.5328 91.1624 75.3304 90.7321 75.8691C90.086 75.8691 89.117 75.8691 88.0418 75.7619C85.3176 75.6197 82.5902 75.5478 79.8623 75.5461C73.1907 75.5461 69.747 75.6534 66.4094 75.8691C66.196 75.0085 66.0876 72.4255 66.4094 71.7794C68.3476 71.4575 69.3155 71.1334 70.5003 70.8115C72.6531 70.1654 73.1907 69.1963 73.2991 66.3987C73.2991 64.3544 73.7283 46.9203 73.0822 42.7232C72.4373 38.4189 69.2082 33.3613 62.1051 33.3613C59.4148 33.3613 55.2189 34.4376 51.1292 37.5571C50.9146 37.7729 50.6977 38.3105 50.6977 38.6335V38.742C51.1292 41.0008 51.1292 43.585 51.1292 47.5663V54.561C51.1292 59.4041 51.0207 63.9241 51.1292 67.3666C51.1292 69.7351 52.5286 70.2727 53.7123 70.7042C54.3583 70.8103 54.7875 70.9188 55.3262 71.0261C56.2941 71.2418 57.2632 71.4575 58.7699 71.7794C58.9856 72.2109 58.9856 73.6091 58.6626 74.7928C58.5542 75.4388 58.3384 75.7607 58.2311 75.8691C54.5729 75.7619 50.8062 75.6534 45.3182 75.6534C43.7042 75.6534 40.9055 75.7619 38.5381 75.7619C36.6 75.7619 34.7714 75.8691 33.6962 75.8691C33.5878 75.6534 33.372 74.9012 33.372 73.7164C33.372 72.7485 33.5878 71.9952 33.8035 71.7794C34.3411 71.6721 34.7714 71.5648 35.3102 71.5648C36.6 71.3491 37.6775 71.1333 38.7527 70.9188C40.5836 70.3812 41.2285 69.4121 41.3358 67.0448C41.6588 61.6641 41.9818 46.2754 41.2285 42.4002C39.9375 36.1589 36.3866 33.0382 30.6817 33.0382C27.3465 33.0382 23.1483 34.6522 19.7058 37.2364C19.167 37.6656 18.7367 38.7408 18.7367 39.7099V46.0596C18.7367 53.8076 18.7367 63.4938 18.844 67.6908C18.9524 68.9806 19.3816 70.4885 21.8573 71.0261C22.3961 71.1334 23.2567 71.3491 24.3331 71.4575L26.2689 71.7794C26.4858 72.4255 26.3774 75.0085 25.9471 75.8691C24.8707 75.8691 23.5798 75.7619 22.0719 75.7619C19.8131 75.6534 16.907 75.5461 13.679 75.5461C9.91234 75.5461 7.22201 75.6534 5.06927 75.7619C3.56259 75.5461 2.37894 75.5461 1.08799 75.5461Z" fill="#BBD2DD"/>
</svg>
